<svg width="15" height="15" viewBox="0 0 15 15" fill="none" xmlns="http://www.w3.org/2000/svg">
<path d="M7.5 0C3.35785 0 0 3.35785 0 7.5C0 11.6421 3.35785 15 7.5 15C11.6421 15 15 11.6421 15 7.5C15 3.35785 11.6421 0 7.5 0ZM11.0424 10.4865C10.9942 10.5429 9.83945 11.8695 7.72025 11.8695C5.159 11.8695 3.35078 9.95637 3.35078 7.46725C3.35078 5.00849 5.2259 3.13052 7.69842 3.13052C9.72333 3.13052 10.782 4.259 10.8261 4.30706C10.8804 4.36624 10.9135 4.44175 10.9203 4.52178C10.9271 4.60181 10.9071 4.68182 10.8635 4.74928L10.1867 5.79732C10.0643 5.98684 9.80041 6.01963 9.63529 5.86672C9.62825 5.86025 8.833 5.14455 7.76392 5.14455C6.36928 5.14455 5.52856 6.15992 5.52856 7.44541C5.52856 8.64305 6.30015 9.85545 7.77484 9.85545C8.94511 9.85545 9.74903 8.99846 9.75702 8.98978C9.91222 8.82148 10.1822 8.83757 10.3167 9.02162L11.0591 10.0369C11.1073 10.1028 11.1318 10.183 11.1288 10.2646C11.1257 10.3462 11.0953 10.4243 11.0424 10.4865Z" fill="white"/>
</svg>
